<?xml version="1.0" encoding="UTF-8"?>
<svg width="141px" height="108px" viewBox="0 0 141 108" version="1.1" xmlns="http://www.w3.org/2000/svg" xmlns:xlink="http://www.w3.org/1999/xlink">
    <!-- Generator: Sketch 47 (45396) - http://www.bohemiancoding.com/sketch -->
    <title>Group</title>
    <desc>Created with Sketch.</desc>
    <defs></defs>
    <g id="Memz-v3" stroke="none" stroke-width="1" fill="none" fill-rule="evenodd">
        <g id="Start-screen-V1" transform="translate(-117.000000, -76.000000)">
            <g id="Logo-&amp;-tagline" transform="translate(58.000000, 71.000000)">
                <g id="Group" transform="translate(59.000000, 0.000000)">
                    <g id="Global/logo-with-text">
                        <path d="M16.5262886,106.061405 L6.04628855,84.5814053 L3.40628855,84.5814053 L0.0462885509,112.141405 L2.64628855,112.141405 L5.44628855,89.3014053 L15.2062886,109.141405 L17.8462886,109.141405 L27.5662886,89.3014053 L30.3662886,112.141405 L32.9662886,112.141405 L29.6062886,84.5814053 L26.9662886,84.5814053 L16.5262886,106.061405 Z M46.8062882,84.5814053 L46.8062882,112.141405 L62.9662882,112.141405 L62.9662882,109.501405 L49.4462882,109.501405 L49.4462882,99.9414053 L60.8862882,99.9414053 L60.8862882,97.3014053 L49.4462882,97.3014053 L49.4462882,87.2214053 L62.5262882,87.2214053 L62.5262882,84.5814053 L46.8062882,84.5814053 Z M91.4862878,106.061405 L81.0062878,84.5814053 L78.3662878,84.5814053 L75.0062878,112.141405 L77.6062878,112.141405 L80.4062878,89.3014053 L90.1662878,109.141405 L92.8062878,109.141405 L102.526288,89.3014053 L105.326288,112.141405 L107.926288,112.141405 L104.566288,84.5814053 L101.926288,84.5814053 L91.4862878,106.061405 Z M119.446287,109.501405 L119.446287,112.141405 L140.953711,112.141405 L140.953711,109.461405 L123.107126,109.461405 L140.953711,87.2214053 L140.953711,84.5814053 L120.086934,84.5814053 L120.086934,87.2614053 L137.247113,87.2614053 L119.446287,109.501405 Z" id="memz" fill="#0BC5C4"></path>
                        <g id="Global/logo" transform="translate(34.000000, 0.000000)" stroke-width="1" fill="#D0CED0">
                            <g id="Group" transform="translate(0.500000, 0.549052)">
                                <path d="M63.8455659,15.152778 L15.8724397,8.41857374 L9.1309168,56.3302344 L57.104043,63.0644387 L63.8455659,15.152778 Z M14.1000764,6.06656769 L66.1983398,13.3798361 L58.8764063,65.4164447 L6.77814295,58.1031763 L14.1000764,6.06656769 Z" id="Rectangle-1-Copy-2" fill-rule="nonzero"></path>
                                <path d="M52.5972031,7.45679039 L7.66359865,19.482465 L19.7024594,64.3589337 L64.6360638,52.3332591 L52.5972031,7.45679039 Z M54.0109978,5.00802525 L67.0862792,53.7478912 L18.2886647,66.8076989 L5.21338324,18.067833 L54.0109978,5.00802525 Z" id="Rectangle-1-Copy-4" fill-rule="nonzero"></path>
                            </g>
                        </g>
                    </g>
                </g>
            </g>
        </g>
    </g>
</svg>